<svg xmlns="http://www.w3.org/2000/svg" xmlns:xlink="http://www.w3.org/1999/xlink" version="1.1" viewBox="0 0 24 30" x="0px" y="0px"><path d="M22.7 5.683c-0.186 0.188-0.445 0.305-0.73 0.305s-0.544-0.116-0.73-0.305l-2.93-2.943c-0.185-0.189-0.3-0.449-0.3-0.735s0.114-0.546 0.3-0.736c0.186-0.188 0.444-0.304 0.73-0.304s0.544 0.116 0.73 0.305l2.93 2.943c0.185 0.189 0.3 0.449 0.3 0.735s-0.114 0.546-0.3 0.736zM20.97 12c-0.001 2.126-0.739 4.079-1.974 5.618l1.864 2.859c0.079 0.142 0.126 0.312 0.126 0.493 0 0.359-0.184 0.675-0.462 0.859l-0.074 0.045c-0.132 0.082-0.292 0.131-0.464 0.131-0.347 0-0.648-0.199-0.793-0.49l-1.612-2.487c-1.522 1.226-3.478 1.968-5.608 1.968-2.109 0-4.048-0.727-5.58-1.945l-1.542 2.454c-0.185 0.295-0.508 0.488-0.876 0.488-0.185 0-0.359-0.049-0.509-0.134-0.293-0.162-0.492-0.474-0.492-0.833 0-0.182 0.051-0.352 0.14-0.496l1.848-2.896c-1.24-1.529-1.99-3.499-1.99-5.644 0-4.971 4.029-9 9-9s9 4.029 9 9c0 0.004 0 0.007 0 0.011zM11.97 5c-3.866 0-7 3.134-7 7s3.134 7 7 7c3.866 0 7-3.134 7-7s-3.134-7-7-7zM15.97 13h-4c-0.552 0-1-0.448-1-1v-4c0-0.552 0.448-1 1-1s1 0.448 1 1v3h3c0.552 0 1 0.448 1 1s-0.448 1-1 1zM2.73 5.708c-0.186 0.188-0.445 0.305-0.73 0.305s-0.544-0.116-0.73-0.305c-0.186-0.189-0.3-0.449-0.3-0.735s0.115-0.546 0.3-0.735l2.92-2.938c0.189-0.199 0.456-0.323 0.751-0.323 0.572 0 1.036 0.464 1.036 1.036 0 0.298-0.126 0.566-0.327 0.755z"/><text x="0" y="39" fill="#000000" font-size="5px" font-weight="bold" font-family="'Helvetica Neue', Helvetica, Arial-Unicode, Arial, Sans-serif">Created by Travis Avery</text><text x="0" y="44" fill="#000000" font-size="5px" font-weight="bold" font-family="'Helvetica Neue', Helvetica, Arial-Unicode, Arial, Sans-serif">from the Noun Project</text></svg>