<svg xmlns:dc="http://purl.org/dc/elements/1.1/" xmlns:cc="http://creativecommons.org/ns#" xmlns:rdf="http://www.w3.org/1999/02/22-rdf-syntax-ns#" xmlns:svg="http://www.w3.org/2000/svg" xmlns="http://www.w3.org/2000/svg" xmlns:sodipodi="http://sodipodi.sourceforge.net/DTD/sodipodi-0.dtd" xmlns:inkscape="http://www.inkscape.org/namespaces/inkscape" version="1.1" x="0px" y="0px" viewBox="0 0 80 100"><g transform="translate(0,-972.36218)"><path style="text-indent:0;text-transform:none;direction:ltr;block-progression:tb;baseline-shift:baseline;color:#000000;enable-background:accumulate;" d="m 28.0625,993.36213 c -0.2559,0 -0.4923,0.086 -0.6875,0.2812 l -7.0938,7.09377 c -0.3905,0.3905 -0.3904,1.0156 0,1.4062 0.3906,0.3905 1.0471,0.3906 1.4376,0 l 7.0624,-7.06247 c 0.3906,-0.3905 0.3905,-1.0469 0,-1.4375 -0.1952,-0.1952 -0.4628,-0.2812 -0.7187,-0.2812 z m 23.875,0 c -0.2559,0 -0.5235,0.086 -0.7187,0.2812 -0.3905,0.3906 -0.3906,1.047 0,1.4375 l 7.0624,7.06247 c 0.3905,0.3906 1.047,0.3905 1.4376,0 0.3904,-0.3906 0.3905,-1.0157 0,-1.4062 l -7.0938,-7.09377 c -0.1952,-0.1953 -0.4316,-0.2812 -0.6875,-0.2812 z m -11.9375,4 c -9.377,0 -17,7.62297 -17,16.99997 0,9.377 7.623,17.0001 17,17.0001 9.3769,0 17,-7.6231 17,-17.0001 0,-9.377 -7.6231,-16.99997 -17,-16.99997 z m 0,2 c 8.2961,0 15,6.70377 15,14.99997 0,8.2962 -6.7039,15.0001 -15,15.0001 -8.2962,0 -15,-6.7039 -15,-15.0001 0,-8.2962 6.7038,-14.99997 15,-14.99997 z m 0,3.99997 c -0.5523,0 -1,0.4477 -1,1 l 0,10 c 0,0.2761 0.1004,0.5378 0.2812,0.7187 l 6.375,6.3439 c 0.3906,0.3905 1.0157,0.3905 1.4063,0 0.3905,-0.3905 0.3905,-1.0159 0,-1.4064 L 41,1013.9246 l 0,-9.5625 c 0,-0.5523 -0.4477,-1 -1,-1 z" fill="#000000" fill-opacity="1" stroke="none" marker="none" visibility="visible" display="inline" overflow="visible"/></g><text x="0" y="95" fill="#000000" font-size="5px" font-weight="bold" font-family="'Helvetica Neue', Helvetica, Arial-Unicode, Arial, Sans-serif">Created by Aybige</text><text x="0" y="100" fill="#000000" font-size="5px" font-weight="bold" font-family="'Helvetica Neue', Helvetica, Arial-Unicode, Arial, Sans-serif">from the Noun Project</text></svg>