<svg xmlns="http://www.w3.org/2000/svg" xmlns:xlink="http://www.w3.org/1999/xlink" version="1.1" x="0px" y="0px" viewBox="0 0 32 40" enable-background="new 0 0 32 32" xml:space="preserve"><g><path d="M30,32H2.02C0.91,32,0,31.1,0,30V10c0-0.97,0.7-2,2-2h1c0.55,0,1,0.45,1,1s-0.45,1-1,1H2v20h28V10h-1c-0.55,0-1-0.45-1-1   s0.45-1,1-1h1c1.3,0,2,1.03,2,2v20C32,31.1,31.1,32,30,32z"/><path d="M26,17c-0.55,0-1-0.45-1-1V2H7v14c0,0.55-0.45,1-1,1s-1-0.45-1-1V2c0-1.1,0.9-2,2-2h18c1.1,0,2,0.9,2,2v14   C27,16.55,26.55,17,26,17z"/><path d="M16,9h-5c-0.55,0-1-0.45-1-1s0.45-1,1-1h5c0.55,0,1,0.45,1,1S16.55,9,16,9z"/><path d="M21,13H11c-0.55,0-1-0.45-1-1s0.45-1,1-1h10c0.55,0,1,0.45,1,1S21.55,13,21,13z"/><path d="M20,23h-7c-1.1,0-2-0.9-2-2v-1H4c-0.55,0-1-0.45-1-1s0.45-1,1-1h8c0.55,0,1,0.45,1,1v2h7v-2c0-0.55,0.45-1,1-1h7   c0.55,0,1,0.45,1,1s-0.45,1-1,1h-6v1C22,22.1,21.1,23,20,23z"/></g><text x="0" y="47" fill="#000000" font-size="5px" font-weight="bold" font-family="'Helvetica Neue', Helvetica, Arial-Unicode, Arial, Sans-serif">Created by Zlatko Najdenovski</text><text x="0" y="52" fill="#000000" font-size="5px" font-weight="bold" font-family="'Helvetica Neue', Helvetica, Arial-Unicode, Arial, Sans-serif">from the Noun Project</text></svg>