<svg xmlns="http://www.w3.org/2000/svg" xmlns:xlink="http://www.w3.org/1999/xlink" version="1.1" x="0px" y="0px" viewBox="0 0 24 30" style="enable-background:new 0 0 24 24;" xml:space="preserve"><path d="M22.158,17.982h-2.33V9.768c0-0.016-0.001-0.032-0.002-0.047C19.768,5.459,16.267,1.999,12,1.999  c-4.267,0-7.768,3.46-7.826,7.721C4.173,9.736,4.172,9.752,4.172,9.768v8.215h-2.33c-0.322,0-0.583,0.261-0.583,0.583  c0,0.322,0.261,0.583,0.583,0.583h6.756C8.885,20.767,10.3,22.001,12,22.001c1.7,0,3.115-1.234,3.402-2.853h6.756  c0.322,0,0.583-0.261,0.583-0.583C22.74,18.243,22.48,17.982,22.158,17.982z M12,20.836c-1.055,0-1.943-0.717-2.21-1.688h4.42  C13.944,20.119,13.055,20.836,12,20.836z M18.663,17.923H5.337V9.809c0.001-0.012,0.001-0.024,0.001-0.036  C5.368,6.129,8.356,3.164,12,3.164c3.644,0,6.632,2.965,6.661,6.608c0,0.012,0.001,0.024,0.001,0.036V17.923z"/><text x="0" y="39" fill="#000000" font-size="5px" font-weight="bold" font-family="'Helvetica Neue', Helvetica, Arial-Unicode, Arial, Sans-serif">Created by Piola</text><text x="0" y="44" fill="#000000" font-size="5px" font-weight="bold" font-family="'Helvetica Neue', Helvetica, Arial-Unicode, Arial, Sans-serif">from the Noun Project</text></svg>