<svg xmlns="http://www.w3.org/2000/svg" xmlns:xlink="http://www.w3.org/1999/xlink" version="1.1" x="0px" y="0px" viewBox="0 0 48 60" enable-background="new 0 0 48 48" xml:space="preserve"><g><g><g><path fill="#000000" d="M29.8,32.1H18.2v-9.5c0-3.2-0.7-6.5-2.2-10.2c-0.6-1.4-0.7-2.9-0.6-4.3C15.9,4.2,19.1,1,23,0.6     c5.2-0.6,9.6,3.5,9.6,8.6c0,1.3-0.3,2.5-0.8,3.7c-1.3,2.9-2,6.1-2,9.8V32.1z M20.2,30.1h7.6v-7.5c0-3.9,0.7-7.5,2.2-10.6     c0.4-0.9,0.6-1.8,0.6-2.8c0-3.9-3.4-7.1-7.4-6.6c-3,0.3-5.5,2.8-5.8,5.8c-0.1,1.2,0,2.3,0.4,3.3c1.6,4,2.4,7.6,2.4,11V30.1z"/></g><g><path fill="#000000" d="M40.3,43.6H7.7V35c0-2.7,2.2-4.9,4.9-4.9h22.9c2.7,0,4.9,2.2,4.9,4.9V43.6z M9.7,41.6h28.6V35     c0-1.6-1.3-2.9-2.9-2.9H12.6c-1.6,0-2.9,1.3-2.9,2.9V41.6z"/></g></g><g><rect x="10.3" y="45.5" fill="#000000" width="27.4" height="2"/></g></g><text x="0" y="63" fill="#000000" font-size="5px" font-weight="bold" font-family="'Helvetica Neue', Helvetica, Arial-Unicode, Arial, Sans-serif">Created by Creative Stall</text><text x="0" y="68" fill="#000000" font-size="5px" font-weight="bold" font-family="'Helvetica Neue', Helvetica, Arial-Unicode, Arial, Sans-serif">from the Noun Project</text></svg>