<svg xmlns="http://www.w3.org/2000/svg" xmlns:xlink="http://www.w3.org/1999/xlink" version="1.0" x="0px" y="0px" viewBox="0 0 32 40" style="enable-background:new 0 0 32 32;" xml:space="preserve"><path d="M24,7.2h0.9h2V5.8h-2H7.1h-2v1.3h2H8c0.4,1.7,1.7,7,5.3,8.9c-3.6,1.8-4.9,7.1-5.3,8.8H7.1v0h-2v1.3h2.7h16.4h2.7v-1.3h-2v0  H24c-0.4-1.8-1.7-7-5.3-8.8C22.2,14.2,23.6,8.9,24,7.2z M22.6,24.8H9.4c0.5-2.2,2.2-8.2,6.6-8.2C20.4,16.7,22.1,22.7,22.6,24.8z   M16,15.3c-4.4,0-6.1-6-6.6-8.2h13.2C22.1,9.3,20.4,15.3,16,15.3z"/><text x="0" y="47" fill="#000000" font-size="5px" font-weight="bold" font-family="'Helvetica Neue', Helvetica, Arial-Unicode, Arial, Sans-serif">Created by Philip Glenn</text><text x="0" y="52" fill="#000000" font-size="5px" font-weight="bold" font-family="'Helvetica Neue', Helvetica, Arial-Unicode, Arial, Sans-serif">from the Noun Project</text></svg>